<mxfile host="app.diagrams.net" modified="2024-05-29T07:04:36.608Z" agent="Mozilla/5.0 (Windows NT 10.0; Win64; x64; rv:126.0) Gecko/20100101 Firefox/126.0" version="24.4.9" etag="J8ywQWTSYyV81votsy1T" type="github">
  <diagram name="Page-1" id="ilYK1RVeM7uWJUXFn6Yt">
    <mxGraphModel>
      <root>
        <mxCell id="0" />
        <mxCell id="1" parent="0" />
      </root>
    </mxGraphModel>
  </diagram>
</mxfile>
